<svg width="80" height="80" viewBox="0 0 80 80" fill="none" xmlns="http://www.w3.org/2000/svg">
<mask id="mask0_4_28" style="mask-type:alpha" maskUnits="userSpaceOnUse" x="3" y="3" width="74" height="74">
<path d="M40 73.3333C58.41 73.3333 73.3333 58.41 73.3333 40C73.3333 21.59 58.41 6.66666 40 6.66666C21.59 6.66666 6.66666 21.59 6.66666 40C6.66666 58.41 21.59 73.3333 40 73.3333Z" stroke="white" stroke-width="6.66667" stroke-linecap="round" stroke-linejoin="round"/>
<path d="M51.6667 11.6667V40" stroke="white" stroke-width="6.66667" stroke-linecap="round" stroke-linejoin="round"/>
<path fill-rule="evenodd" clip-rule="evenodd" d="M27.7267 11.06L51.2967 34.63L27.7267 11.06Z" fill="white"/>
<path d="M27.7267 11.06L51.2967 34.63" stroke="white" stroke-width="6.66667" stroke-linecap="round" stroke-linejoin="round"/>
<path d="M11.6667 28.3333H40" stroke="white" stroke-width="6.66667" stroke-linecap="round" stroke-linejoin="round"/>
<path fill-rule="evenodd" clip-rule="evenodd" d="M33.94 29.3933L10.37 52.9633L33.94 29.3933Z" fill="white"/>
<path d="M33.94 29.3933L10.37 52.9633" stroke="white" stroke-width="6.66667" stroke-linecap="round" stroke-linejoin="round"/>
<path d="M28.3333 41.6666V70" stroke="white" stroke-width="6.66667" stroke-linecap="round" stroke-linejoin="round"/>
<path fill-rule="evenodd" clip-rule="evenodd" d="M29.3933 46.06L52.9633 69.63L29.3933 46.06Z" fill="white"/>
<path d="M29.3933 46.06L52.9633 69.63" stroke="white" stroke-width="6.66667" stroke-linecap="round" stroke-linejoin="round"/>
<path d="M40 51.6666H70" stroke="white" stroke-width="6.66667" stroke-linecap="round" stroke-linejoin="round"/>
<path fill-rule="evenodd" clip-rule="evenodd" d="M70.6066 27.7267L47.0367 51.2967L70.6066 27.7267Z" fill="white"/>
<path d="M70.6066 27.7267L47.0367 51.2967" stroke="white" stroke-width="6.66667" stroke-linecap="round" stroke-linejoin="round"/>
<path d="M40 51.6666C41.5321 51.6666 43.0492 51.3649 44.4646 50.7786C45.8801 50.1923 47.1662 49.3329 48.2496 48.2496C49.3329 47.1662 50.1923 45.8801 50.7786 44.4646C51.3649 43.0492 51.6666 41.5321 51.6666 40C51.6666 38.4679 51.3649 36.9508 50.7786 35.5353C50.1923 34.1199 49.3329 32.8338 48.2496 31.7504C47.1662 30.6671 45.8801 29.8077 44.4646 29.2214C43.0492 28.6351 41.5321 28.3333 40 28.3333C36.9058 28.3333 33.9383 29.5625 31.7504 31.7504C29.5625 33.9383 28.3333 36.9058 28.3333 40C28.3333 43.0942 29.5625 46.0616 31.7504 48.2496C33.9383 50.4375 36.9058 51.6666 40 51.6666Z" fill="white" stroke="white" stroke-width="6.66667" stroke-linecap="round" stroke-linejoin="round"/>
</mask>
<g mask="url(#mask0_4_28)">
<path d="M0 0H80V80H0V0Z" fill="#2F5BAC"/>
</g>
</svg>
